<svg id="_0506_target_1" xmlns="http://www.w3.org/2000/svg" xmlns:xlink="http://www.w3.org/1999/xlink" viewBox="0 0 500 500" data-imageid="target-1-4" imageName="Target 1" class="illustrations_image" style="width: 178px;"><defs><style>.cls-1_target-1-4{fill:url(#linear-gradient);}.cls-1_target-1-4,.cls-2_target-1-4,.cls-3_target-1-4,.cls-4_target-1-4,.cls-5_target-1-4,.cls-6_target-1-4,.cls-7_target-1-4,.cls-8_target-1-4,.cls-9_target-1-4,.cls-10_target-1-4,.cls-11_target-1-4,.cls-12_target-1-4,.cls-13_target-1-4,.cls-14_target-1-4,.cls-15_target-1-4,.cls-16_target-1-4,.cls-17_target-1-4,.cls-18_target-1-4,.cls-19_target-1-4{stroke-width:0px;}.cls-2_target-1-4{opacity:.18;}.cls-2_target-1-4,.cls-15_target-1-4{isolation:isolate;}.cls-2_target-1-4,.cls-19_target-1-4{fill:#68e1fd;}.cls-3_target-1-4{fill:url(#linear-gradient-11-target-1-4);}.cls-4_target-1-4{fill:url(#linear-gradient-12-target-1-4);}.cls-5_target-1-4{fill:url(#linear-gradient-13-target-1-4);}.cls-6_target-1-4{fill:url(#linear-gradient-10-target-1-4);}.cls-7_target-1-4{fill:url(#linear-gradient-14-target-1-4);}.cls-8_target-1-4{fill:url(#linear-gradient-4-target-1-4);}.cls-9_target-1-4{fill:url(#linear-gradient-2-target-1-4);}.cls-10_target-1-4{fill:url(#linear-gradient-3-target-1-4);}.cls-11_target-1-4{fill:url(#linear-gradient-8-target-1-4);}.cls-12_target-1-4{fill:url(#linear-gradient-9-target-1-4);}.cls-13_target-1-4{fill:url(#linear-gradient-5-target-1-4);}.cls-14_target-1-4{fill:url(#linear-gradient-6-target-1-4);}.cls-15_target-1-4{fill:url(#linear-gradient-7-target-1-4);opacity:.36;}.cls-16_target-1-4{fill:#c14834;}.cls-17_target-1-4{fill:#fff;}.cls-18_target-1-4{fill:#ffaa71;}</style><linearGradient id="linear-gradient-target-1-4" x1="232.2" y1="2186.3" x2="252.42" y2="2192.85" gradientTransform="translate(-38 2317.83) scale(1 -1)" gradientUnits="userSpaceOnUse"><stop offset="0" stop-color="#000"/><stop offset=".13" stop-color="#000" stop-opacity=".69"/><stop offset=".25" stop-color="#000" stop-opacity=".32"/><stop offset="1" stop-color="#000" stop-opacity="0"/></linearGradient><linearGradient id="linear-gradient-2-target-1-4" x1="217.34" y1="2185.07" x2="257.28" y2="2190.5" gradientTransform="translate(-31 2323.65) scale(1 -1)" xlink:href="#linear-gradient-target-1-4"/><linearGradient id="linear-gradient-3-target-1-4" x1="277.67" y1="2136.26" x2="150.71" y2="2230.66" xlink:href="#linear-gradient-target-1-4"/><linearGradient id="linear-gradient-4-target-1-4" x1="175.58" y1="2151.97" x2="329.54" y2="2117.97" xlink:href="#linear-gradient-target-1-4"/><linearGradient id="linear-gradient-5-target-1-4" x1="251.09" y1="2196.25" x2="283.51" y2="2186.27" xlink:href="#linear-gradient-target-1-4"/><linearGradient id="linear-gradient-6-target-1-4" x1="575.22" y1="2079.65" x2="-3.18" y2="1996.83" gradientTransform="translate(-38 2317.83) scale(1 -1)" gradientUnits="userSpaceOnUse"><stop offset="0" stop-color="#231f20"/><stop offset=".08" stop-color="#231f20" stop-opacity=".69"/><stop offset=".21" stop-color="#231f20" stop-opacity=".32"/><stop offset="1" stop-color="#231f20" stop-opacity="0"/></linearGradient><linearGradient id="linear-gradient-7-target-1-4" x1="336.62" y1="2073.7" x2="508.1" y2="1952.84" gradientTransform="translate(-31 2323.65) scale(1 -1)" xlink:href="#linear-gradient-6-target-1-4"/><linearGradient id="linear-gradient-8-target-1-4" x1="258.87" y1="2124.35" x2="246.29" y2="1915.76" gradientTransform="translate(-31 2323.65) scale(1 -1)" xlink:href="#linear-gradient-6-target-1-4"/><linearGradient id="linear-gradient-9-target-1-4" x1="341.07" y1="2087.7" x2="525.25" y2="1957.9" gradientTransform="translate(-31 2323.65) scale(1 -1)" xlink:href="#linear-gradient-6-target-1-4"/><linearGradient id="linear-gradient-10-target-1-4" x1="353.92" y1="2105.84" x2="464.86" y2="1933.75" gradientTransform="translate(-31 2323.65) scale(1 -1)" xlink:href="#linear-gradient-6-target-1-4"/><linearGradient id="linear-gradient-11-target-1-4" x1="161.7" y1="2044.71" x2="109.38" y2="2103.16" gradientTransform="translate(-31 2323.65) scale(1 -1)" xlink:href="#linear-gradient-6-target-1-4"/><linearGradient id="linear-gradient-12-target-1-4" x1="153.59" y1="2092.59" x2="139.01" y2="1982.91" gradientTransform="translate(-31 2323.65) scale(1 -1)" xlink:href="#linear-gradient-6-target-1-4"/><linearGradient id="linear-gradient-13-target-1-4" x1="136.06" y1="2092.59" x2="121.48" y2="1982.91" gradientTransform="translate(-31 2323.65) scale(1 -1)" xlink:href="#linear-gradient-6-target-1-4"/><linearGradient id="linear-gradient-14-target-1-4" x1="147.36" y1="-3356.81" x2="134.71" y2="-3452.02" gradientTransform="translate(-38 3643.9)" xlink:href="#linear-gradient-6-target-1-4"/></defs><g id="background_target-1-4"><path class="cls-2_target-1-4 targetColor" d="M214.99,79.11c-41.63,28.68-66.45,78.27-109.47,105.16-17.71,11.21-38.01,17.95-54.49,30.79-61.31,47.8-32.93,158.98,31.54,190.74,31.17,15.38,67.79,11.74,102.54,12.31,24.89.37,49.69,3.06,74.07,8.03,42.8,8.77,87.96,24.4,128.41,8.03,21-8.45,31.19-24.56,46.98-38.95,16.63-14.73,29.72-33.02,38.31-53.5,10.7-25.92,14.53-54.25,14.66-82.29.19-37.8-6.45-76.05-22.98-110.06-16.53-34-43.47-63.53-77.58-79.75-21.48-9.73-44.65-15.18-68.22-16.05-33.44-1.85-68.06,3.61-96.73,20.89-2.46,1.5-4.84,3.02-7.04,4.65Z" style="fill: rgb(104, 225, 253);"/><path class="cls-17_target-1-4" d="M249.18,145.53l-7.44,26.86c-.72,2.02-.72,4.24,0,6.26,1.38,2.09,3.49,3.6,5.91,4.23,12,5.01,21.98,13.9,28.33,25.25-1.9-3.42,8.85-15.33,10.11-18.19,3.32-7.41,0-10.01-4.92-16.24-9.1-11.05-19.21-21.53-31.99-28.17Z"/><path class="cls-17_target-1-4" d="M165.16,339.43l43.28,6.74c4.04,1.13,8.36-.14,11.16-3.26,11.8-9.52,23.92-19.42,31.09-32.77l-30.34,2.89c-8.8.86-16.77,10.33-24.48,14.55-5,2.73-10.17,5.13-15.49,7.17-3.72,1.42-11.18,5.32-15.22,4.68Z"/><path class="cls-17_target-1-4" d="M120.05,201.07c.12-.28.33-.51.59-.67.29-.08.59-.08.88,0,4.92.64,9.84,1.36,14.74,2.17-1.71,2.53-2.36,5.63-1.82,8.64.58,2.98,2.08,5.71,4.28,7.81-1.15-.03-2.29-.24-3.37-.62l-8.64-2.51c-1.82-.54-4.9-.86-5.97-2.68-.65-1.66-1.05-3.41-1.2-5.19-.67-2.3-.49-4.77.51-6.96Z"/></g><g id="character_target-1-4"><path class="cls-18_target-1-4" d="M202.31,136.87l2.68-3.64c2.44-3.64,5.2-7.05,8.24-10.19,6.18-6.07,10.19-13.99,15.76-20.65.34-.35.58-.78.7-1.26.19-1.12-.99-1.93-2.01-2.38-1.35-.7-2.84-1.06-4.36-1.04-1.55.04-2.93,1-3.5,2.43-.18.88-.26,1.78-.24,2.68-.49,2.34-1.68,4.47-3.42,6.1l-13.99,15.76c-1.82,1.74-3.15,3.92-3.85,6.34-.34,2.69,1.39,5.2,4.01,5.86Z"/><path class="cls-1_target-1-4" d="M202.31,136.87c1.11-1.21,1.71-2.8,1.69-4.44.08-2.14.49-4.26,1.2-6.29.99-1.88,1.46-4,1.36-6.13.02-.1.02-.2,0-.29-.14-.08-.31-.08-.45,0-.73.3-1.33.85-1.69,1.55-1.61,2.49-5.99,6.69-5.99,9.79-.32,2.63,1.33,5.1,3.88,5.81Z"/><polygon class="cls-19_target-1-4 targetColor" points="192.92 137.13 199.88 130.82 205.63 138.2 198.25 142.88 192.92 137.13" style="fill: rgb(104, 225, 253);"/><polygon class="cls-9_target-1-4" points="192.92 137.13 199.88 130.82 205.63 138.2 198.25 142.88 192.92 137.13"/><path class="cls-18_target-1-4" d="M191.91,210.38s.88,16.93,4.36,25.6c2.09,5.34,3.53,10.91,4.31,16.59-.48.99.35,2.17,1.36,2.68,1.05.3,2.16.3,3.21,0l4.39-.56c.53-.01,1.03-.23,1.39-.62.45-.72-.29-1.66-1.12-1.9s-1.71,0-2.51-.43c-1.5-.59-1.98-2.43-2.27-4.04l-1.28-6.96c-2.13-9.92-3.41-20.01-3.83-30.15,0-.46-.06-.93-.21-1.36-.46-.75-1.2-1.28-2.06-1.47-.84-.39-1.75-.61-2.68-.64-.99-.01-1.9.57-2.3,1.47"/><path class="cls-19_target-1-4 targetColor" d="M212.32,252.16l-1.12-.16c-.88-.16-1.78-.22-2.68-.16-.39.02-.71.31-.78.7-.1.34-.28.65-.51.91-.53.36-1.19.48-1.82.32-.66-.03-1.32-.15-1.95-.35-.62-.24-1.18-.59-1.82-.78-.34-.16-.73-.16-1.07,0-.15.14-.27.3-.37.48-.18.31-.3.64-.37.99,0,.34.06.67.16.99.09.73.76,1.25,1.49,1.16.12-.02.24-.05.36-.09l5.35-.56c1.69-.19,3.34-.35,5-.64.92-.16,1.81-.41,2.68-.75,0,0,.24,0,.24-.27s0-.16,0-.24c-.79-.96-1.94-1.56-3.18-1.66" style="fill: rgb(104, 225, 253);"/><path class="cls-18_target-1-4" d="M179.68,209.87s-1.95,16.85,0,25.98c1.17,5.61,1.67,11.34,1.5,17.07-.64.88,0,2.19.91,2.68.96.5,2.05.74,3.13.67l4.44.16c.52.09,1.06-.05,1.47-.37.56-.64,0-1.69-.8-2.06s-1.66-.4-2.38-.83c-1.39-.83-1.58-2.68-1.61-4.36v-7.06c-.48-10.08-.11-20.18,1.1-30.2.11-.45.11-.92,0-1.36-.32-.81-.96-1.46-1.77-1.79-.81-.54-1.72-.91-2.68-1.1-.98-.18-1.97.24-2.51,1.07"/><path class="cls-18_target-1-4" d="M206.06,148.5l2.49,1.36c.86.48,2.49,1.98,3.53,1.31s.64-3.34.67-4.28c.11-3.35-.14-6.71-.75-10.01-.62-1.64-.5-3.46.32-5,.82-1.23,2.48-1.56,3.71-.74.52.35.9.86,1.08,1.46.25.87.38,1.77.37,2.68.21.67.21,1.39,0,2.06-.2.28-.38.57-.54.88-.09.35-.09.72,0,1.07l1.95,9.71c.63,2.11.63,4.36,0,6.47-1.46,2.81-4.67,4.23-7.73,3.42-3.26-.9-6.26-2.55-8.77-4.82-.27-.21-.59-.56-.4-.86.09-.14.24-.25.4-.29,1.02-.35,1.94-.95,2.68-1.74.7-.72,1.07-1.7.99-2.7Z"/><path class="cls-18_target-1-4" d="M200.73,132.37c-.13.36-.38.67-.7.88-.47.2-.99.28-1.5.24-.52-.02-1.04.11-1.5.37-.19.2-.26.48-.19.75l.27,3.32c.08.25.08.52,0,.78-.18.32-.5.53-.86.59-1.2.32-2.68.59-3.53-.32-.41-.54-.65-1.18-.7-1.85-.84-3.77-1.06-7.64-.67-11.48.17-2.35,1.36-4.52,3.26-5.91,1.77-1.01,3.86-1.29,5.83-.78.9.2,1.64.83,1.98,1.69.21.62,0,1.15,0,1.77-.06.89-.06,1.78,0,2.68.05.43.12.86.21,1.28.11.36.18.74.19,1.12-.09.69-.35,1.35-.75,1.93-.41.69-.74,1.43-.99,2.19-.19.19-.27.48-.37.75Z"/><path class="cls-16_target-1-4" d="M203.81,118.94c-.43,1.4-1.55,2.48-2.97,2.86-1.71.51-3.58.37-5.35.91s-1.69,1.63-1.61,2.92c0,.62.13,1.23.21,1.79h0c.07.37.13.75.16,1.12.04.8-.06,1.59-.29,2.35-1,2.02-1.58,4.22-1.71,6.47.18,1.09.46,2.17.83,3.21.11.45.18.9.21,1.36-.01,1.53-.54,3.01-1.5,4.2-.25.3-.51.57-.8.83-.74.58-1.42,1.24-2.03,1.95-.54.75-.72,1.74-1.23,2.51-.75,1.07-1.65,2.03-2.68,2.84l-.45.32c-2.38,1.75-5.29,2.61-8.24,2.43-1.16-.04-2.3-.33-3.34-.86-.96-.59-1.81-1.35-2.49-2.25-1.6-1.97-2.6-4.36-2.89-6.88-.35-2.57.32-5.17,1.87-7.25.98-1.08,2.03-2.09,3.16-3.02,1.41-1.22,2.47-2.8,3.08-4.57.7-2.68-.19-5.35.19-8.03.66-3.71,3.64-6.58,7.38-7.09,1.74.11,3.48-.14,5.11-.75,1.02-.75,1.92-1.65,2.68-2.68,1.56-1.9,3.89-3,6.34-3,2.47.04,4.74,1.35,5.99,3.48.74,1.49.87,3.2.37,4.79Z"/><path class="cls-10_target-1-4" d="M194.15,127.42h0v3.48c-1,2.02-1.58,4.22-1.71,6.47.18,1.09.46,2.17.83,3.21-.44,2.21-1.14,4.35-2.09,6.39-.43.92-.92,1.82-1.47,2.68-1.17,1.8-2.67,3.37-4.41,4.63l-.45.32c-1.5.98-3.2,1.61-4.98,1.82-3.15.97-6.49-.8-7.46-3.95-.25-.8-.32-1.64-.22-2.47.28-3.3,2.1-6.27,4.9-8.03,1.87-.98,3.81-1.82,5.81-2.49,2-.69,3.67-2.09,4.71-3.93.41-1.06.69-2.16.83-3.29.37-2.06,1.58-6.66,3.88-7.49.59-.28,1.29-.02,1.57.57.04.09.07.19.09.29.14.59.2,1.19.19,1.79Z"/><path class="cls-19_target-1-4 targetColor" d="M198.94,173.19c-.24,8.21,2.68,16.05,5,23.89,1.9,6.61,3.88,15.76-4.95,18.08-3.62.56-7.28.79-10.94.7-2.68.24-5.35.94-8.21,1.12-3.09.21-6.2-.22-9.12-1.26-1.01-.32-1.93-.89-2.68-1.66-2.06-2.33-.56-5.94.78-8.75,4.84-10.27,3.99-21.4,11.64-30.26,1.04-.99,1.84-2.19,2.35-3.53.28-1.28.31-2.61.08-3.91-.47-4.25-.57-8.54-.29-12.81.27-3.86,1.28-7.64,2.97-11.13.63-1.61,1.54-3.09,2.68-4.39,1.22-1.26,2.85-2.06,4.6-2.25,1.77-.15,3.48.65,4.52,2.09,2.68,4.09,7.04,5,10.25,8.67.18.17.31.4.37.64,0,.28-.1.55-.27.78-1.15,1.79-2.27,3.58-3.4,5.35-.34.58-.75,1.13-1.2,1.63-.4.4-.88.75-1.28,1.15-1.04,1.29-1.69,2.87-1.85,4.52-.63,3.74-.98,7.52-1.04,11.32Z" style="fill: rgb(104, 225, 253);"/><path class="cls-19_target-1-4 targetColor" d="M192.79,254.46l-1.1-.35c-.86-.33-1.76-.54-2.68-.62-.16-.04-.32-.04-.48,0-.18.11-.32.28-.4.48-.14.32-.36.59-.64.8-.59.27-1.26.27-1.85,0-.65-.14-1.28-.37-1.87-.67-.56-.32-1.07-.78-1.66-1.07-.34-.16-.73-.16-1.07,0-.18.11-.33.26-.45.43-.23.26-.41.56-.54.88-.05.34-.05.68,0,1.02.01.29.09.58.24.83.36.37.87.56,1.39.51l5.35.35c1.69,0,3.37.21,5.06.19.9.02,1.8-.08,2.68-.29.14-.01.26-.09.32-.21v-.24c-.65-1.08-1.7-1.86-2.92-2.17" style="fill: rgb(104, 225, 253);"/><path class="cls-8_target-1-4" d="M205.55,207.62c-1.58.54-3.32.37-4.76-.48-2.33-1.84-3.76-4.58-3.93-7.54-.99-6.37-.4-13.24-3.75-18.73-1.3-1.49-2.08-3.37-2.22-5.35.21-2.03,2.11-3.4,3.21-5.14,1.04-1.99,1.6-4.2,1.63-6.45l1.12-12.6c0,1.07,4.65,3.32,6.34,4.95-.4.4-.88.75-1.28,1.15-1.04,1.29-1.69,2.87-1.85,4.52-.66,3.71-1.03,7.47-1.12,11.24-.24,8.21,2.68,16.05,5,23.89,1.2,3.38,1.75,6.96,1.61,10.54Z"/><path class="cls-19_target-1-4 targetColor" d="M227.57,125.36c.28,3.31-.28,6.64-1.63,9.68-.18.1-.38.17-.59.21-.16.06-.33.06-.48,0-1.2-.45-7.65-6.29-16.32-4.74-1.68.39-3.36-.66-3.75-2.35-.39-1.68.66-3.36,2.35-3.75.46-.11.95-.11,1.41,0,0,0,11.56-1.85,14.85-8.03.48-.91,1.12-1.15,1.82-.94.42.16.8.42,1.1.75h0c.98,2.95,1.41,6.05,1.26,9.15Z" style="fill: rgb(104, 225, 253);"/><path class="cls-13_target-1-4" d="M227.57,125.36c.28,3.31-.28,6.64-1.63,9.68-.12.14-.3.23-.48.24h0c-1.1-.27-1.98-4.6-1.98-9.9s.8-9.26,1.85-9.84c.08-.02.16-.02.24,0,.29,0,.59.29.86.83h0c.93,2.9,1.32,5.95,1.15,8.99Z"/></g><g id="target_target-1-4"><path class="cls-19_target-1-4 targetColor" d="M433.07,261.47c0,68.91-22.77,124.8-50.83,124.8-2.46,0-14.21.8-16.56,0-24.64-8.61-34.27-61.9-34.27-124.8s8.51-118.16,34.03-124.8c1.77-.48,14.98,0,16.8,0,28.04-.05,50.83,55.86,50.83,124.8Z" style="fill: rgb(104, 225, 253);"/><path class="cls-14_target-1-4" d="M433.07,261.47c0,68.91-22.77,124.8-50.83,124.8-2.46,0-14.21.8-16.56,0-24.64-8.61-34.27-61.9-34.27-124.8s8.51-118.16,34.03-124.8c1.77-.48,14.98,0,16.8,0,28.04-.05,50.83,55.86,50.83,124.8Z"/><ellipse class="cls-19_target-1-4 targetColor" cx="367.82" cy="261.45" rx="50.83" ry="124.8" style="fill: rgb(104, 225, 253);"/><ellipse class="cls-17_target-1-4" cx="365.36" cy="261.53" rx="41.2" ry="101.15"/><ellipse class="cls-19_target-1-4 targetColor" cx="365.36" cy="261.53" rx="30.07" ry="73.81" style="fill: rgb(104, 225, 253);"/><ellipse class="cls-17_target-1-4" cx="365.36" cy="261.53" rx="19.96" ry="49.01"/><ellipse class="cls-19_target-1-4 targetColor" cx="365.36" cy="261.53" rx="10.43" ry="25.65" style="fill: rgb(104, 225, 253);"/><polygon class="cls-15_target-1-4" points="318.68 293.49 336.18 279.42 336.18 286.46 370.66 261.45 330.85 267.65 336.34 272.07 317.75 282.9 318.68 293.49"/><polygon class="cls-19_target-1-4 targetColor" points="79.02 239.59 107.56 239.59 129.74 256.36 356.11 256.36 361.75 264.76 130.97 264.76 112.48 287.18 84.74 287.18 97.69 269.07 97.69 261.79 79.02 239.59" style="fill: rgb(104, 225, 253);"/><polygon class="cls-11_target-1-4" points="98.36 260.72 126.9 260.72 130.94 260.72 357.31 260.72 361.75 264.76 130.97 264.76 112.48 287.18 84.74 287.18 97.69 269.07 97.69 261.79 98.36 260.72"/><polygon class="cls-19_target-1-4 targetColor" points="345.7 256.36 339.84 247.59 370.66 261.45 339.44 273.86 345.41 261.53 345.7 256.36" style="fill: rgb(104, 225, 253);"/><polygon class="cls-12_target-1-4" points="345.7 256.36 339.84 247.59 370.66 261.45 339.44 273.86 345.41 261.53 345.7 256.36"/><polygon class="cls-6_target-1-4" points="370.66 261.45 345.41 261.53 339.44 273.86 370.66 261.45"/><polygon class="cls-3_target-1-4" points="94.75 258.32 129.74 258.32 107.56 239.59 79.02 239.59 94.75 258.32"/><polygon class="cls-4_target-1-4" points="102.26 287.18 116.63 265.27 130.97 264.76 112.27 287.18 102.26 287.18"/><polygon class="cls-5_target-1-4" points="84.74 287.18 100.47 265.22 113.44 264.76 94.72 287.18 84.74 287.18"/><polygon class="cls-7_target-1-4" points="89.07 239.59 109.03 258.32 119.52 258.32 99.05 239.59 89.07 239.59"/></g></svg>