<svg version="1.1" id="Layer_1" xmlns="http://www.w3.org/2000/svg" xmlns:xlink="http://www.w3.org/1999/xlink" x="0px" y="0px" viewBox="0 0 500 500" style="width: 178px;" xml:space="preserve" data-imageid="team-building-94" imageName="Team Building" class="illustrations_image">
<style type="text/css">
	.st0_team-building-94{fill:#8383EA;}
	.st1_team-building-94{opacity:0.63;fill:url(#SVGID_1_);enable-background:new    ;}
	.st2_team-building-94{opacity:0.63;fill:url(#SVGID_00000085940203626408715080000005968398424916210339_);enable-background:new    ;}
	.st3_team-building-94{opacity:0.63;fill:url(#SVGID_00000028304940660072519820000007669111047241108385_);enable-background:new    ;}
	.st4_team-building-94{fill:#F2C3BD;}
	.st5_team-building-94{fill:#473E39;}
	.st6_team-building-94{fill:#053855;}
	.st7_team-building-94{fill:#68E1FD;}
	.st8_team-building-94{fill:#FFC8A9;}
	.st9_team-building-94{fill:#A2C609;}
	.st10_team-building-94{opacity:0.5;fill:#473E39;enable-background:new    ;}
	.st11_team-building-94{opacity:0.21;fill:#FFFFFF;enable-background:new    ;}
	.st12_team-building-94{fill:#FFEED9;}
	.st13_team-building-94{fill:#5ED18D;}
</style>
<g id="background_team-building-94">
	<path class="st0_team-building-94" d="M243.3,418.1L11.6,281.2C4.3,277-2,270.2,5.1,265.8l232.5-134c3.5-2.2,8.8-3.6,12.3-1.5l243.2,141.1&#10;&#9;&#9;c7.4,4.3,8.7,16.2,1.3,20.5L273.8,417.9C264.4,423.4,252.8,423.4,243.3,418.1z"/>
	
		<linearGradient id="SVGID_1_-team-building-94" gradientUnits="userSpaceOnUse" x1="280.2418" y1="265.1203" x2="173.8118" y2="135.8903" gradientTransform="matrix(1 0 0 -1 0 502)">
		<stop offset="0" style="stop-color:#053855"/>
		<stop offset="1" style="stop-color:#053855;stop-opacity:0"/>
	</linearGradient>
	<path class="st1_team-building-94" d="M140.8,286.9l-47.4,31L232.5,407l56.6-35C280.8,366.7,149.1,292.1,140.8,286.9z"/>
	
		<linearGradient id="SVGID_00000070096683030771723250000010353187514308226701_-team-building-94" gradientUnits="userSpaceOnUse" x1="422.8047" y1="196.4095" x2="437.3147" y2="219.8595" gradientTransform="matrix(1 0 0 -1 0 502)">
		<stop offset="0" style="stop-color:#053855;stop-opacity:0"/>
		<stop offset="1" style="stop-color:#053855"/>
	</linearGradient>
	<path style="opacity:0.63;fill:url(#SVGID_00000070096683030771723250000010353187514308226701_);enable-background:new    ;" d="&#10;&#9;&#9;M433.7,274.8L405,291.6l24.9,14.5l28.6-15.4C450.2,285.4,442,280,433.7,274.8z"/>
	
		<linearGradient id="SVGID_00000133503629986191472360000012639560192282963096_-team-building-94" gradientUnits="userSpaceOnUse" x1="201.3335" y1="330.1089" x2="94.9035" y2="200.8689" gradientTransform="matrix(1 0 0 -1 0 502)">
		<stop offset="0" style="stop-color:#053855"/>
		<stop offset="1" style="stop-color:#053855;stop-opacity:0"/>
	</linearGradient>
	<path style="opacity:0.63;fill:url(#SVGID_00000133503629986191472360000012639560192282963096_);enable-background:new    ;" d="&#10;&#9;&#9;M131.5,255.3l-48.8,24.3l24,16.2l42.2-24.2C140.7,266.3,139.9,260.5,131.5,255.3z"/>
</g>
<g id="character_2_team-building-94">
	<path class="st4_team-building-94" d="M305.7,180.2c0.4-0.9-7.1,10.1-8.9,10.8c-3.2,1.2-14.9,8-20.5,7.9c0.4,1.9,4.7,3.9,5.1,5.8&#10;&#9;&#9;c3.2,1.3,16.2-4.2,21.4-6.3c4.5-1.9,11.5-11.4,11.5-11.4L305.7,180.2z"/>
	<path class="st5_team-building-94" d="M322.9,307.1c-1.1,1.5-2.4,2.9-3.7,4.3c-2.8,1.8-5.7,3.5-8.7,4.9c-1.1,0.5-2.8,1-2.8,2.9s2.4,3.5,5.8,3.3&#10;&#9;&#9;s9.6-2.1,11.1-3.7s2.2-1.7,2.2-1.7s6,1.3,7.7-0.1c1.3-1.1,0.3-6.8-0.2-9.4C330.7,309,326.6,308.8,322.9,307.1z"/>
	<path class="st5_team-building-94" d="M361.7,323.2c0.1,2.1-0.1,4.2-0.6,6.3c-0.8,2.1-5.2,10.8-4.5,12c1.4,1.9,3.9,2.6,6.1,1.9c2.8-1,7.1-4,7.8-6.3&#10;&#9;&#9;s1.1-7.8,1.6-9.5s0-5.1,0-5.1L361.7,323.2z"/>
	<path class="st6_team-building-94" d="M330.4,229c0,0.8,3.9,20.3,6.6,26.5c2.7,6.2,11.6,26.3,11.6,26.3s10.3,36.3,10.3,40.9c0,0,7,4.9,14.1,0&#10;&#9;&#9;c0,0-1.6-13.8-1.6-18.1s-6.5-20.3-7.6-24.9s-8.5-51.8-10.8-56.1S330.1,219,330.4,229z"/>
	<path class="st6_team-building-94" d="M317.5,219v23.3c0,11.4,4.3,24.4,4.1,29s0,36.5,0,36.5c4.1,2.4,9.2,2.4,13.3,0c0,0,2.1-22.5,2.4-26.5&#10;&#9;&#9;s0-29.2,0-33.8s-2.1-22.8-6.9-26.7S317.5,219,317.5,219z"/>
	<path class="st7_team-building-94 targetColor" d="M326,162.9c0,0-6.3-0.1-8.4,1.4s-13.9,15.2-13.9,15.2s3.2,7.2,7.9,9.7h1.6c0,0,1.2,29.5,1.6,31&#10;&#9;&#9;c0,0-0.9-0.1-0.2,1.7s5,2.6,5,2.6s21.7,4.2,30.9,0.1l2.5-1.1c0,0,1.5-3.4,1.1-4.5c-1-1.7-2.2-3.4-3.4-5c0,0,7-20.7,7-28.9&#10;&#9;&#9;c0-4.9-2.2-10.8-5.7-14s-14.5-8.2-14.5-8.2L326,162.9z" style="fill: rgb(104, 225, 253);"/>
	<path class="st4_team-building-94" d="M327.2,162.9l0.2,4.3c0,0,0.7,4.2,7,3.4c0,0,4.9-1.4,4.7-4.5c-0.1-0.8-0.6-8.8-0.6-8.8"/>
	<path class="st5_team-building-94" d="M325.2,149.7c-2-0.1-3.6-1.8-3.5-3.8c0,0,0-0.1,0-0.1c0.1-3.5,2.2-5.3,4-5.3s1.5-3.6,7.3-3s6.7,2.6,6.7,2.6&#10;&#9;&#9;s4.9,0.7,5.7,5.2s-1.8,9-2.7,9.4s-0.2,2.9-2,4.6c-1.2,1.1-2.7,1.7-4.3,1.7"/>
	<path class="st4_team-building-94" d="M324.1,148.4c0.2,1.5,0.2,2.9,0,4.4c-0.3,1.5-2.1,8.9,4.1,13.4c0,0,6.3,0.9,9.4-6.4c0,0,1.1-9.4-0.4-10.6&#10;&#9;&#9;s-1.8,1.8-4.5,1.2S326.5,147.4,324.1,148.4z"/>
	<path class="st4_team-building-94" d="M338.1,152.8c-0.9,0.7-1.6,1.7-1.8,2.8c-0.4,0-0.8,0.4-0.7,0.8c0,0.2,0.1,0.4,0.3,0.6c0.9,0.6,2.2,0,3-0.5&#10;&#9;&#9;c0.9-0.6,1.5-1.6,1.5-2.7c-0.1-0.8-0.8-1.4-1.6-1.3C338.5,152.7,338.3,152.7,338.1,152.8z"/>
	<path class="st5_team-building-94" d="M338,152.8c0,0-0.9,4.6-1.6,5c-0.9,0.6-2.1,2.3-3.4,2c-0.2-0.1-0.4-0.2-0.6-0.3c-1.3-0.8-2.6-1.9-4.2-2.1&#10;&#9;&#9;c-1.8-0.1-3.5,0.5-4-0.1c-0.4-0.6-0.6-1.2-0.7-1.9c0,0-0.1,5.2,0.5,6.9s1.6,4,4.9,4.6c2.8,0.5,5.6-0.7,7.2-3c2.1-3.2,2.1-10,2.1-10&#10;&#9;&#9;L338,152.8z"/>
	<path class="st4_team-building-94" d="M340,193.3c0,0-3.1,6-4.8,7.6s-20.9,10.2-22.6,10.9s-2,1.2-3,1.1s-9.3-0.1-9.7,0.7c-0.2,0.6-0.2,1.2,0,1.8&#10;&#9;&#9;c0,0-2.6,1.5-2,3s1.9,5.3,4.2,5.3s7.5-4.4,7.9-5.5c0,0,21.3-1.8,30.1-6.7s10.2-11.6,10.2-11.6S347.6,193.2,340,193.3z"/>
</g>
<g id="character_1_team-building-94">
	<path class="st8_team-building-94" d="M162.8,133.8c0,0,1.8,15.2,3.2,18.7s6.2,18.7,6.2,18.7s3.4,4.9,2.1,5.5s-3.4-3.8-3.4-3.8l-6.4-1.7&#10;&#9;&#9;c0,0-5.7-15.2-7.1-18.6s-3.3-17-3.3-17"/>
	<path class="st8_team-building-94" d="M145.3,198.9c0,0,0.8,20.1,1.3,26.2s0.2,34.7,0.2,34.7c-1.8,0.8-3.8,1-5.7,0.8c-3.5-0.4-6.9-28.9-6.8-32.7&#10;&#9;&#9;s-5.3-24.9-5.4-33.4s4.2-18.7,10.7-17.6S145.3,198.9,145.3,198.9z"/>
	<path class="st8_team-building-94" d="M130,207.3c0,0-0.9,20.1-1,26.3s-2.3,33-2.3,33c-2.5,0.7-5.1,1-7.6,0.6c0,0-2.7-27.2-2.4-32.6&#10;&#9;&#9;c0.2-3.9-3.3-24.6-2.6-33.1s5.8-18.3,12.2-16.6S130,207.3,130,207.3z"/>
	<path class="st5_team-building-94" d="M151.8,269.8c-2.9-3.5-4.6-11.7-4.6-11.7s0.1-0.1-0.2-0.5c-0.6,1.3-1.9,2.1-3.3,2c-3-0.2-3-4-5.4-4.8&#10;&#9;&#9;c-0.1,0.2-0.3,0.5-0.4,0.8c-1.1,2.5-0.2,17.3-0.2,17.3l4,2l-0.4-4.7c0,0,1.1,2.5,2.1,5.1s4.8,3.9,8.7,5.6s5.9,0.4,6.9-2.6&#10;&#9;&#9;S154.7,273.3,151.8,269.8z"/>
	<path class="st5_team-building-94" d="M146.6,220.1c1-28.2,1.6-55.8,1.6-55.8s-23.9-11.8-30.5-6c0,0-3.5,9.3-4.4,24c-0.4,7-0.7,23.8-0.7,41.9&#10;&#9;&#9;C124.1,230,137.4,229.2,146.6,220.1z"/>
	<path class="st9_team-building-94" d="M150,150.5c1-4.3,2.4-8.6,4.1-12.7c2.9-7.4,4.9-14.8,4.4-22.6c-0.1-0.8-0.4-1.6-0.9-2.2&#10;&#9;&#9;c-4.1-4.3-13.1-3.3-13.1-3.3c-1.2-0.1-2.5-0.1-3.7,0.1c0,0.4-0.3,0.7-0.6,0.7c-10.3,1.2-13.6,12.3-14.9,21&#10;&#9;&#9;c-0.9,6-1.1,12.1-3.3,17.8c-1.2,3-2.6,5.9-4.2,8.7c3,2.2,16.4,11.1,30.1,4.9C148.6,158.8,149.1,154.6,150,150.5z"/>
	<path class="st9_team-building-94" d="M156.9,112.4c0,0,8.2,6.3,6.9,23.6c0,0-7.8,1.9-10.6,1.9"/>
	<path class="st10_team-building-94" d="M129.6,142.3l-3.6-15.8c0,0-0.5,4.4-0.5,4.5c-0.5,4.3-1.8,12.1-2,13.4l-1.8,6.9l7.5-5.6L129.6,142.3z"/>
	<path class="st8_team-building-94" d="M156.7,104.4L156.7,104.4c-0.3,0.3-0.6,0.5-0.8,0.8c-1.4,2.5-2.7,5-4,7.5c-1-0.2-2-0.6-2.9-1.1&#10;&#9;&#9;c-1.5-0.9-2.8-2.2-3.7-3.7l1.6-8L156.7,104.4z"/>
	<path class="st8_team-building-94" d="M165.2,93.7c0.2,0.5-6.9,17.5-10.7,16s-9.2-8.2-7.2-15.1S162.2,86.4,165.2,93.7z"/>
	<path class="st5_team-building-94" d="M159,85.3c-22.4-6-31.8,38.7-31.8,38.7c1.8-9.5,11-13.2,11-13.2l0.2,14.3c3.4-2.1,8.5-1.8,10.8-4.7l0.2-16.8&#10;&#9;&#9;c0,0-2.7-4.8-0.2-5.2s2.9,2.6,2.9,2.6l2.2-5.5l10.9,4.4C165.3,99.8,172.7,88.9,159,85.3z"/>
	<path class="st5_team-building-94" d="M131.7,275.7c-2.9-3.5-4.6-11.7-4.6-11.7s0.1-0.1-0.2-0.5c-0.6,1.3-1.9,2.1-3.3,2c-3-0.2-3-4-5.4-4.8&#10;&#9;&#9;c-0.1,0.2-0.2,0.5-0.4,0.8c-1.1,2.5-0.2,17.3-0.2,17.3l4,2l-0.4-4.7c0,0,1.1,2.5,2.2,5.1s4.8,3.9,8.7,5.6s5.9,0.4,6.9-2.6&#10;&#9;&#9;S134.5,279.2,131.7,275.7z"/>
	<polyline class="st7_team-building-94 targetColor" points="144.6,156.6 144.6,186.8 168.1,200.2 194.7,184.5 194.7,154.4 &#9;" style="fill: rgb(104, 225, 253);"/>
	<polygon class="st7_team-building-94 targetColor" points="144.6,156.6 171.9,141.1 194.7,154.4 168.1,170.1 &#9;" style="fill: rgb(104, 225, 253);"/>
	<polygon class="st11_team-building-94" points="144.6,156.6 171.9,141.1 194.7,154.4 168.1,170.1 &#9;"/>
	<polygon class="st7_team-building-94 targetColor" points="168.1,170.1 168.1,200.2 194.7,184.5 194.7,154.4 &#9;" style="fill: rgb(104, 225, 253);"/>
	<path class="st8_team-building-94" d="M136.2,134.5c0,0,0.1,10.1,1.8,13.4s9.8,20.4,10.2,20.7s7.5,4,6.6,5.3s-5.1-0.9-5.1-0.9s5.2,8,3.1,9.4&#10;&#9;&#9;s-11-6.5-11-8.8s-0.3-5.8-0.3-5.8s-13.1-17.6-14.1-20.5s-1.8-14.4-1.8-14.4S131.5,129.7,136.2,134.5z"/>
	<path class="st9_team-building-94" d="M136.9,125.1l0.9,14.2c-1.2-0.2-12.2,0.9-12.4,0.5s0.6-13.3,0.6-13.3"/>
</g>
<g id="blocks_team-building-94">
	<polygon class="st7_team-building-94 targetColor" points="273.9,345.9 305.2,329.6 305.2,291.5 273.9,309.7 &#9;" style="fill: rgb(104, 225, 253);"/>
	<polygon class="st7_team-building-94 targetColor" points="237.3,286.9 273.6,308 273.2,308.6 304.6,290.4 267.9,269.1 &#9;" style="fill: rgb(104, 225, 253);"/>
	<polygon class="st7_team-building-94 targetColor" points="267.9,267.6 299,249.5 266.4,230.7 235.3,248.8 &#9;" style="fill: rgb(104, 225, 253);"/>
	<path class="st7_team-building-94 targetColor" d="M305.9,289.6l31.1-18.1c-0.2-0.1-0.4-0.3-0.5-0.4l-36.2-20.9l-31.1,18.1L305.9,289.6z" style="fill: rgb(104, 225, 253);"/>
	<path class="st7_team-building-94 targetColor" d="M230.2,209.8l-23-13.3c-3.9-2.3-8.8-2.3-12.7,0l-24.8,14.3l29.5,17.1L230.2,209.8z" style="fill: rgb(104, 225, 253);"/>
	<polygon class="st7_team-building-94 targetColor" points="202.2,268.1 200.8,268.9 200.8,304.3 235.4,324.3 235.4,287.4 &#9;" style="fill: rgb(104, 225, 253);"/>
	<polygon class="st7_team-building-94 targetColor" points="232.7,248.8 199.1,229.4 168.6,247.2 202.1,266.6 &#9;" style="fill: rgb(104, 225, 253);"/>
	<polygon class="st7_team-building-94 targetColor" points="272.7,308.9 236.7,288.1 236.7,325 272.6,345.8 272.6,309 &#9;" style="fill: rgb(104, 225, 253);"/>
	<polygon class="st7_team-building-94 targetColor" points="236,286.2 266.6,268.4 234,249.6 203.4,267.4 &#9;" style="fill: rgb(104, 225, 253);"/>
	<polygon class="st7_team-building-94 targetColor" points="200.9,267.4 167.7,248.1 167.7,285.1 199.5,303.5 199.5,268.2 &#9;" style="fill: rgb(104, 225, 253);"/>
	<path class="st7_team-building-94 targetColor" d="M166.4,247.4l-28.1-16.3l0.6-1.1l28.4,16.4l30.6-17.8l-29.5-17.1L140,228c-3.6,2.1-5.2,6.6-3.5,10.5v5.6&#10;&#9;&#9;c0,0.3,0,0.6,0,0.9v22l30,17.3L166.4,247.4z" style="fill: rgb(104, 225, 253);"/>
	<polygon class="st7_team-building-94 targetColor" points="234,248.1 265.1,230 231.5,210.6 200.4,228.6 &#9;" style="fill: rgb(104, 225, 253);"/>
	<path class="st7_team-building-94 targetColor" d="M236.7,326.5v28.2h-1.3v-29l-34.6-20v29.4l66.4,39.8c1.7,1,3.5,1.7,5.4,2v-29.6L236.7,326.5z" style="fill: rgb(104, 225, 253);"/>
	<path class="st7_team-building-94 targetColor" d="M305.2,331.1l-31.3,16.3v29.8c3.5,0.4,7-0.4,10.1-2.2l22.4-13.2h-1.2V331.1z" style="fill: rgb(104, 225, 253);"/>
	<path class="st7_team-building-94 targetColor" d="M306.5,361.8l26.1-15.3c3.9-2.3,6.5-6.5,6.6-11.1l1-22.4l-33.7,17.5L306.5,361.8z" style="fill: rgb(104, 225, 253);"/>
	<path class="st7_team-building-94 targetColor" d="M341,289.4l-0.3-10.8l0,0c0-2.3-0.9-4.6-2.6-6.2l-31.6,18.4V329l33.8-17.5L341,289.4" style="fill: rgb(104, 225, 253);"/>
	<polygon class="st7_team-building-94 targetColor" points="167.7,286.6 167.7,315.2 167.5,315.2 199.5,334.4 199.5,305 &#9;" style="fill: rgb(104, 225, 253);"/>
	<path class="st7_team-building-94 targetColor" d="M136.4,268.5v21.9c0,3.8,2,7.3,5.2,9.3l24.7,14.8v-28.6L136.4,268.5z" style="fill: rgb(104, 225, 253);"/>
	<polygon class="st7_team-building-94 targetColor" points="273.9,345.9 305.2,329.6 305.2,291.5 273.9,309.7 &#9;" style="fill: rgb(104, 225, 253);"/>
	<polygon class="st7_team-building-94 targetColor" points="237.3,286.9 273.6,308 273.2,308.6 304.6,290.4 267.9,269.1 &#9;" style="fill: rgb(104, 225, 253);"/>
	<polygon class="st7_team-building-94 targetColor" points="267.9,267.6 299,249.5 266.4,230.7 235.3,248.8 &#9;" style="fill: rgb(104, 225, 253);"/>
	<path class="st7_team-building-94 targetColor" d="M305.9,289.6l31.1-18.1c-0.2-0.1-0.4-0.3-0.5-0.4l-36.2-20.9l-31.1,18.1L305.9,289.6z" style="fill: rgb(104, 225, 253);"/>
	<path class="st7_team-building-94 targetColor" d="M230.2,209.8l-23-13.3c-3.9-2.3-8.8-2.3-12.7,0l-24.8,14.3l29.5,17.1L230.2,209.8z" style="fill: rgb(104, 225, 253);"/>
	<polygon class="st7_team-building-94 targetColor" points="202.2,268.1 200.8,268.9 200.8,304.3 235.4,324.3 235.4,287.4 &#9;" style="fill: rgb(104, 225, 253);"/>
	<polygon class="st7_team-building-94 targetColor" points="232.7,248.8 199.1,229.4 168.6,247.2 202.1,266.6 &#9;" style="fill: rgb(104, 225, 253);"/>
	<polygon class="st7_team-building-94 targetColor" points="272.7,308.9 236.7,288.1 236.7,325 272.6,345.8 272.6,309 &#9;" style="fill: rgb(104, 225, 253);"/>
	<polygon class="st7_team-building-94 targetColor" points="236,286.2 266.6,268.4 234,249.6 203.4,267.4 &#9;" style="fill: rgb(104, 225, 253);"/>
	<polygon class="st7_team-building-94 targetColor" points="200.9,267.4 167.7,248.1 167.7,285.1 199.5,303.5 199.5,268.2 &#9;" style="fill: rgb(104, 225, 253);"/>
	<path class="st7_team-building-94 targetColor" d="M168.4,211.6L140,228c-0.7,0.4-1.3,0.9-1.9,1.5c0.3,0.2,0.5,0.4,0.8,0.5l0,0l28.4,16.4l30.6-17.8L168.4,211.6z&#10;&#9;&#9;" style="fill: rgb(104, 225, 253);"/>
	<polygon class="st7_team-building-94 targetColor" points="234,248.1 265.1,230 231.5,210.6 200.4,228.6 &#9;" style="fill: rgb(104, 225, 253);"/>
	<path class="st7_team-building-94 targetColor" d="M236.7,326.5v28.2h-0.2v1.8l30.7,18.4c1.7,1,3.5,1.7,5.4,2v-29.6L236.7,326.5z" style="fill: rgb(104, 225, 253);"/>
	<path class="st7_team-building-94 targetColor" d="M235.2,352.4c0-0.2,0.1-0.3,0.2-0.4v-26.2l-34.6-20v29.4l34.5,20.7V352.4z" style="fill: rgb(104, 225, 253);"/>
	<path class="st7_team-building-94 targetColor" d="M305.2,331.1l-31.3,16.3v29.8c3.5,0.4,7-0.4,10.1-2.2l22.4-13.2h-1.2V331.1z" style="fill: rgb(104, 225, 253);"/>
	<path class="st7_team-building-94 targetColor" d="M306.5,361.8l26.1-15.3c3.9-2.3,6.5-6.5,6.6-11.1l1-22.4l-33.7,17.5L306.5,361.8z" style="fill: rgb(104, 225, 253);"/>
	<path class="st7_team-building-94 targetColor" d="M341,289.4l-0.3-10.8l0,0c0-2.3-0.9-4.6-2.6-6.2l-31.6,18.4V329l33.8-17.5L341,289.4" style="fill: rgb(104, 225, 253);"/>
	<polygon class="st7_team-building-94 targetColor" points="167.7,286.6 167.7,315.2 167.5,315.2 199.5,334.4 199.5,305 &#9;" style="fill: rgb(104, 225, 253);"/>
	<path class="st7_team-building-94 targetColor" d="M136.4,268.5v21.9c0,3.8,2,7.3,5.2,9.3l24.7,14.8v-28.6L136.4,268.5z" style="fill: rgb(104, 225, 253);"/>
	<polygon class="st12_team-building-94" points="235.4,354.8 236.7,354.8 236.7,326.5 235.4,325.8 &#9;"/>
	<polygon class="st12_team-building-94" points="237.3,286.9 267.9,269.1 266.6,268.4 236,286.2 &#9;"/>
	<polygon class="st12_team-building-94" points="235.4,287.4 235.4,324.3 236.7,325 236.7,288.1 &#9;"/>
	<polygon class="st12_team-building-94" points="269.1,268.4 300.3,250.3 299,249.5 267.9,267.6 &#9;"/>
	<polygon class="st12_team-building-94" points="235.3,248.8 266.4,230.7 265.1,230 234,248.1 &#9;"/>
	<polygon class="st12_team-building-94" points="199.5,305 199.5,334.4 200.8,335.1 200.8,305.8 &#9;"/>
	<polygon class="st12_team-building-94" points="202.2,268.1 200.9,267.4 199.5,268.2 199.5,303.5 200.8,304.3 200.8,268.9 &#9;"/>
	<polygon class="st12_team-building-94" points="203.4,267.4 234,249.6 232.7,248.8 202.1,266.6 &#9;"/>
	<polygon class="st12_team-building-94" points="166.4,315.2 167.5,315.2 166.4,314.5 &#9;"/>
	<polygon class="st12_team-building-94" points="199.1,229.4 197.9,228.6 167.3,246.4 168.6,247.2 &#9;"/>
	<polygon class="st12_team-building-94" points="200.4,228.6 231.5,210.6 230.2,209.8 199.1,227.9 &#9;"/>
	<polygon class="st12_team-building-94" points="167.7,286.6 166.4,285.9 166.4,314.5 167.5,315.2 167.7,315.2 &#9;"/>
	<polygon class="st12_team-building-94" points="167.7,248.1 166.4,247.4 166.4,284.4 167.7,285.1 &#9;"/>
	<polygon class="st12_team-building-94" points="202.1,266.6 168.6,247.2 167.7,247.7 167.7,248.1 200.9,267.4 &#9;"/>
	<polygon class="st12_team-building-94" points="236.7,288.1 272.7,308.9 273,308.8 273.2,308.6 273.6,308 237.3,286.9 236.7,287.3 &#9;"/>
	<polygon class="st12_team-building-94" points="236,286.2 203.4,267.4 202.2,268.1 235.4,287.4 235.4,286.5 &#9;"/>
	<polygon class="st12_team-building-94" points="167.3,246.4 138.9,230 138.2,231.1 166.4,247.4 166.4,247 &#9;"/>
	<polygon class="st12_team-building-94" points="235.4,286.5 235.4,287.4 236.7,288.1 236.7,287.3 237.3,286.9 236,286.2 &#9;"/>
	<polygon class="st12_team-building-94" points="202.1,266.6 200.9,267.4 202.2,268.1 203.4,267.4 &#9;"/>
	<polygon class="st12_team-building-94" points="167.7,247.7 168.6,247.2 167.3,246.4 166.4,247 166.4,247.4 167.7,248.1 &#9;"/>
	<path class="st12_team-building-94" d="M272.6,377.2h1.3l0,0c-0.4,0-0.9-0.1-1.3-0.2V377.2z"/>
	<path class="st12_team-building-94" d="M273.3,347.7l-0.3-0.2l-0.3-0.2V377c0.4,0.1,0.9,0.2,1.3,0.2v-29.9L273.3,347.7z"/>
	<polygon class="st12_team-building-94" points="273,309.1 272.7,308.9 272.6,309 272.6,345.8 273.3,346.2 273.9,345.9 273.9,309.7 305.2,291.5 &#10;&#9;&#9;305.2,290.8 304.6,290.4 273.2,308.6 &#9;"/>
	<path class="st12_team-building-94" d="M306.5,290v0.7l31.6-18.4c-0.3-0.3-0.7-0.6-1.1-0.9l-31.1,18.1L306.5,290z"/>
	<polygon class="st12_team-building-94" points="272.7,308.9 273,309.1 273.2,308.6 273,308.8 &#9;"/>
	<polygon class="st12_team-building-94" points="306.5,361.8 306.5,361.8 306.4,361.8 &#9;"/>
	<polygon class="st12_team-building-94" points="199.1,227.9 169.7,210.8 168.4,211.6 197.9,228.6 &#9;"/>
	<polygon class="st12_team-building-94" points="305.2,331.1 305.2,361.8 306.4,361.8 306.5,361.8 306.5,330.4 &#9;"/>
	<polygon class="st12_team-building-94" points="266.6,268.4 267.9,267.6 235.3,248.8 234,249.6 &#9;"/>
	<polygon class="st12_team-building-94" points="305.2,329.6 306.5,329 306.5,290.8 305.2,291.5 &#9;"/>
	<polygon class="st12_team-building-94" points="232.7,248.8 234,248.1 200.4,228.6 199.1,229.4 &#9;"/>
	<polygon class="st12_team-building-94" points="304.6,290.4 305.9,289.6 269.1,268.4 267.9,269.1 &#9;"/>
	<polygon class="st12_team-building-94" points="267.9,269.1 269.1,268.4 267.9,267.6 266.6,268.4 &#9;"/>
	<polygon class="st12_team-building-94" points="234,249.6 235.3,248.8 234,248.1 232.7,248.8 &#9;"/>
	<polygon class="st12_team-building-94" points="200.4,228.6 199.1,227.9 197.9,228.6 199.1,229.4 &#9;"/>
	<polygon class="st12_team-building-94" points="305.9,289.6 304.6,290.4 305.2,290.8 305.2,291.5 306.5,290.8 306.5,290 &#9;"/>
	<polygon class="st12_team-building-94" points="166.4,284.4 136.4,267 136.4,268.5 166.4,285.9 &#9;"/>
	<polygon class="st12_team-building-94" points="273.9,345.9 273.9,347.4 305.2,331.1 305.2,329.6 &#9;"/>
	<polygon class="st12_team-building-94" points="306.5,330.4 340.2,312.9 340.3,311.4 306.5,329 &#9;"/>
	<polygon class="st12_team-building-94" points="167.7,285.1 167.7,286.6 199.5,305 199.5,303.5 &#9;"/>
	<polygon class="st12_team-building-94" points="236.7,325 236.7,326.5 272.6,347.3 272.6,345.8 &#9;"/>
	<polygon class="st12_team-building-94" points="200.8,304.3 200.8,305.8 235.4,325.8 235.4,324.3 &#9;"/>
	<polygon class="st12_team-building-94" points="235.4,324.3 235.4,325.8 236.7,326.5 236.7,325 &#9;"/>
	<polygon class="st12_team-building-94" points="199.5,303.5 199.5,305 200.8,305.8 200.8,304.3 &#9;"/>
	<polygon class="st12_team-building-94" points="166.4,284.4 166.4,285.9 167.7,286.6 167.7,285.1 &#9;"/>
	<polygon class="st12_team-building-94" points="273.3,346.2 272.6,345.8 272.6,347.3 273,347.5 273.3,347.7 273.9,347.4 273.9,345.9 &#9;"/>
	<polygon class="st12_team-building-94" points="305.2,331.1 306.5,330.4 306.5,329 305.2,329.6 &#9;"/>
	<polyline class="st7_team-building-94 targetColor" points="252.8,212.4 252.8,242.5 276.3,256 302.9,240.3 302.9,210.1 &#9;" style="fill: rgb(104, 225, 253);"/>
	<polygon class="st7_team-building-94 targetColor" points="252.8,212.4 280.1,196.9 302.9,210.1 276.3,225.8 &#9;" style="fill: rgb(104, 225, 253);"/>
	<polygon class="st11_team-building-94" points="252.8,212.4 280.1,196.9 302.9,210.1 276.3,225.8 &#9;"/>
	<polygon class="st7_team-building-94 targetColor" points="276.3,225.8 276.3,256 302.9,240.3 302.9,210.1 &#9;" style="fill: rgb(104, 225, 253);"/>
</g>
<g id="plant_team-building-94">
	<path class="st7_team-building-94 targetColor" d="M445.3,260.9c-6.6-0.6-13.5-2.6-18.4-7.1v19.5c0,11.2,9.1,20.3,20.2,20.3l0,0c11.2,0,20.3-9.1,20.3-20.3&#10;&#9;&#9;c0,0,0,0,0,0v-19.8C460.5,256.3,452.6,261.5,445.3,260.9z" style="fill: rgb(104, 225, 253);"/>
	<ellipse class="st13_team-building-94" cx="447.1" cy="253.6" rx="20.3" ry="10.7"/>
	<path class="st13_team-building-94" d="M447.1,255.5c0,0-13.8-2-17.4-24.3C429.7,231.2,441.5,237.6,447.1,255.5z"/>
	<path class="st13_team-building-94" d="M449.2,252.6c0,0-15.8-28.4,0-47.4C454,220.7,454,237.2,449.2,252.6z"/>
	<path class="st13_team-building-94" d="M447.1,234.8c0,0-13.8-2-17.4-24.3C429.7,210.5,441.5,217,447.1,234.8z"/>
	<path class="st13_team-building-94" d="M448.8,243.9c0,0-3.5-13.5,15.7-25.5C464.5,218.4,463.1,231.8,448.8,243.9z"/>
	<ellipse class="st6_team-building-94" cx="447.1" cy="253.6" rx="20.3" ry="10.7"/>
	<path class="st13_team-building-94" d="M447.1,255.5c0,0-13.8-2-17.4-24.3C429.7,231.2,441.5,237.6,447.1,255.5z"/>
	<path class="st13_team-building-94" d="M449.2,252.6c0,0-15.8-28.4,0-47.4C454,220.7,454,237.2,449.2,252.6z"/>
	<path class="st13_team-building-94" d="M447.1,234.8c0,0-13.8-2-17.4-24.3C429.7,210.5,441.5,217,447.1,234.8z"/>
	<path class="st13_team-building-94" d="M448.8,243.9c0,0-3.5-13.5,15.7-25.5C464.5,218.4,463.1,231.8,448.8,243.9z"/>
</g>
</svg>